<svg width="10" height="10" viewBox="0 0 10 10" fill="none" xmlns="http://www.w3.org/2000/svg">
<path d="M0.388502 0.387525C0.452365 0.323501 0.528231 0.272704 0.611756 0.238046C0.69528 0.203387 0.784822 0.185547 0.875252 0.185547C0.965682 0.185547 1.05522 0.203387 1.13875 0.238046C1.22227 0.272704 1.29814 0.323501 1.362 0.387525L5.00025 4.02715L8.6385 0.387525C8.70242 0.323605 8.77831 0.2729 8.86182 0.238306C8.94534 0.203712 9.03485 0.185907 9.12525 0.185907C9.21565 0.185907 9.30516 0.203712 9.38868 0.238306C9.4722 0.2729 9.54808 0.323605 9.612 0.387525C9.67592 0.451446 9.72663 0.527331 9.76122 0.610848C9.79582 0.694365 9.81362 0.783878 9.81362 0.874276C9.81362 0.964673 9.79582 1.05419 9.76122 1.1377C9.72663 1.22122 9.67592 1.2971 9.612 1.36103L5.97238 4.99928L9.612 8.63753C9.67592 8.70145 9.72663 8.77733 9.76122 8.86085C9.79582 8.94436 9.81362 9.03388 9.81362 9.12428C9.81362 9.21467 9.79582 9.30419 9.76122 9.3877C9.72663 9.47122 9.67592 9.5471 9.612 9.61103C9.54808 9.67495 9.4722 9.72565 9.38868 9.76025C9.30516 9.79484 9.21565 9.81264 9.12525 9.81264C9.03485 9.81264 8.94534 9.79484 8.86182 9.76025C8.77831 9.72565 8.70242 9.67495 8.6385 9.61103L5.00025 5.9714L1.362 9.61103C1.29808 9.67495 1.2222 9.72565 1.13868 9.76025C1.05516 9.79484 0.96565 9.81264 0.875252 9.81264C0.784854 9.81264 0.695341 9.79484 0.611825 9.76025C0.528308 9.72565 0.452423 9.67495 0.388502 9.61103C0.324581 9.5471 0.273876 9.47122 0.239282 9.3877C0.204689 9.30419 0.186883 9.21467 0.186883 9.12428C0.186883 9.03388 0.204689 8.94436 0.239282 8.86085C0.273876 8.77733 0.324581 8.70145 0.388502 8.63753L4.02813 4.99928L0.388502 1.36103C0.324478 1.29716 0.273681 1.2213 0.239022 1.13777C0.204363 1.05425 0.186523 0.964706 0.186523 0.874276C0.186523 0.783846 0.204363 0.694304 0.239022 0.610779C0.273681 0.527255 0.324478 0.451388 0.388502 0.387525Z" fill="#051C42"/>
</svg>
