<svg width="18" height="18" viewBox="0 0 18 18" fill="none" xmlns="http://www.w3.org/2000/svg">
<path d="M8.25075 7.5H9.75075V11.25H8.25075V7.5ZM8.25 12H9.75V13.5H8.25V12Z" fill="#F44336"/>
<path d="M10.3257 3.15002C10.0647 2.65877 9.55622 2.35352 8.99972 2.35352C8.44322 2.35352 7.93472 2.65877 7.67372 3.15077L2.17022 13.548C2.04809 13.7763 1.9876 14.0326 1.9947 14.2914C2.0018 14.5502 2.07626 14.8027 2.21072 15.024C2.34324 15.2463 2.53145 15.4302 2.75675 15.5575C2.98206 15.6848 3.23668 15.7512 3.49547 15.75H14.504C15.035 15.75 15.5157 15.4785 15.7895 15.024C15.9237 14.8027 15.998 14.5502 16.0051 14.2914C16.0122 14.0326 15.9519 13.7764 15.83 13.548L10.3257 3.15002ZM3.49547 14.25L8.99972 3.85277L14.5077 14.25H3.49547Z" fill="#F44336"/>
</svg>
