<svg width="21" height="21" viewBox="0 0 21 21" fill="none" xmlns="http://www.w3.org/2000/svg">
<path d="M14.6291 17.283L14.0691 12.7995C13.9897 12.1644 13.6811 11.5803 13.2012 11.1568C12.7214 10.7333 12.1033 10.4998 11.4633 10.5H9.53483C8.89513 10.5002 8.27752 10.7339 7.79802 11.1574C7.31853 11.5808 7.01015 12.1647 6.93083 12.7995L6.36995 17.283C6.33917 17.5293 6.36115 17.7794 6.43442 18.0166C6.50769 18.2537 6.63059 18.4726 6.79494 18.6586C6.9593 18.8447 7.16135 18.9936 7.38769 19.0956C7.61403 19.1975 7.85946 19.2502 8.1077 19.25H12.8922C13.1404 19.2501 13.3857 19.1973 13.6119 19.0953C13.8382 18.9933 14.0401 18.8443 14.2044 18.6583C14.3686 18.4723 14.4914 18.2535 14.5647 18.0163C14.6379 17.7792 14.6598 17.5293 14.6291 17.283V17.283Z" stroke="#051C42" stroke-width="2" stroke-linecap="round" stroke-linejoin="round"/>
<path d="M10.5 7C11.9497 7 13.125 5.82475 13.125 4.375C13.125 2.92525 11.9497 1.75 10.5 1.75C9.05025 1.75 7.875 2.92525 7.875 4.375C7.875 5.82475 9.05025 7 10.5 7Z" stroke="#051C42" stroke-width="2"/>
<path d="M3.5 9.625C4.4665 9.625 5.25 8.8415 5.25 7.875C5.25 6.9085 4.4665 6.125 3.5 6.125C2.5335 6.125 1.75 6.9085 1.75 7.875C1.75 8.8415 2.5335 9.625 3.5 9.625Z" stroke="#051C42" stroke-width="2"/>
<path d="M17.5 9.625C18.4665 9.625 19.25 8.8415 19.25 7.875C19.25 6.9085 18.4665 6.125 17.5 6.125C16.5335 6.125 15.75 6.9085 15.75 7.875C15.75 8.8415 16.5335 9.625 17.5 9.625Z" stroke="#051C42" stroke-width="2"/>
<path d="M3.49977 12.25H3.23202C2.81776 12.2499 2.41692 12.3969 2.1008 12.6646C1.78468 12.9323 1.57379 13.3035 1.50564 13.7121L1.21427 15.4621C1.17246 15.7129 1.18576 15.9697 1.25327 16.2147C1.32077 16.4598 1.44085 16.6872 1.60516 16.8812C1.76946 17.0751 1.97404 17.2309 2.20468 17.3378C2.43531 17.4447 2.68646 17.5 2.94064 17.5H6.12477M17.4998 12.25H17.7675C18.1818 12.2499 18.5826 12.3969 18.8987 12.6646C19.2149 12.9323 19.4257 13.3035 19.4939 13.7121L19.7853 15.4621C19.8271 15.7129 19.8138 15.9697 19.7463 16.2147C19.6788 16.4598 19.5587 16.6872 19.3944 16.8812C19.2301 17.0751 19.0255 17.2309 18.7949 17.3378C18.5642 17.4447 18.3131 17.5 18.0589 17.5H14.8748" stroke="#051C42" stroke-width="2" stroke-linecap="round" stroke-linejoin="round"/>
</svg>
