<svg width="32" height="33" viewBox="0 0 32 33" fill="none" xmlns="http://www.w3.org/2000/svg">
<path fill-rule="evenodd" clip-rule="evenodd" d="M21.1916 3.16602C21.3783 4.78202 20.705 6.37268 19.7196 7.54335C18.693 8.69535 17.0476 9.57535 15.4476 9.46202C15.2383 7.90868 16.049 6.25535 16.957 5.24735C17.9836 4.10068 19.7663 3.22468 21.1916 3.16602ZM26.3103 11.8447C26.121 11.9513 23.1716 13.6313 23.2036 17.0473C23.241 21.1833 27.013 22.55 27.057 22.5647C27.0356 22.6607 26.4663 24.538 25.0543 26.442C23.873 28.1194 22.6343 29.7593 20.6703 29.7887C19.737 29.81 19.105 29.554 18.4476 29.2887C17.7623 29.0113 17.0476 28.722 15.929 28.722C14.745 28.722 13.9983 29.0207 13.2783 29.3087C12.6556 29.5567 12.0543 29.798 11.205 29.8314C9.33431 29.898 7.90364 28.0407 6.67964 26.378C4.23564 22.986 2.33164 16.814 4.88364 12.6153C6.12098 10.5553 8.37698 9.22868 10.7876 9.19402C11.849 9.17268 12.8676 9.56202 13.761 9.90202C14.4436 10.1633 15.053 10.3953 15.5516 10.3953C15.9903 10.3953 16.5823 10.1727 17.273 9.91268C18.361 9.50202 19.6903 9.00068 21.0463 9.13535C21.973 9.16202 24.613 9.48202 26.3143 11.842L26.3103 11.8447Z" fill="white"/>
</svg>
