<svg width="36" height="35" viewBox="0 0 36 35" fill="none" xmlns="http://www.w3.org/2000/svg">
<path d="M7.64538 17.5001C7.64535 19.8231 8.45081 22.0743 9.92451 23.8701C11.3982 25.6658 13.449 26.895 15.7274 27.3483C18.0058 27.8015 20.3708 27.4507 22.4196 26.3556C24.4683 25.2606 26.074 23.489 26.963 21.3428C27.852 19.1966 27.9694 16.8086 27.295 14.5856C26.6207 12.3625 25.1965 10.4421 23.2649 9.15149C21.3334 7.86086 19.0141 7.27989 16.7023 7.50756C14.3904 7.73524 12.229 8.75748 10.5864 10.4001C9.65381 11.3324 8.91407 12.4392 8.40944 13.6575C7.90481 14.8757 7.64518 16.1815 7.64538 17.5001ZM17.7774 10.0931C19.7673 10.0931 21.6757 10.8836 23.0828 12.2907C24.4899 13.6978 25.2804 15.6062 25.2804 17.5961C25.2804 19.586 24.4899 21.4944 23.0828 22.9015C21.6757 24.3086 19.7673 25.0991 17.7774 25.0991V10.0931ZM18.4164 5.4031V0.903104C18.4243 0.787516 18.4085 0.671525 18.3697 0.562338C18.3309 0.453151 18.2701 0.353101 18.1911 0.268404C18.112 0.183707 18.0164 0.116174 17.9101 0.0700006C17.8039 0.0238273 17.6892 0 17.5734 0C17.4575 0 17.3429 0.0238273 17.2366 0.0700006C17.1304 0.116174 17.0347 0.183707 16.9557 0.268404C16.8766 0.353101 16.8158 0.453151 16.7771 0.562338C16.7383 0.671525 16.7224 0.787516 16.7304 0.903104V5.4031C16.7451 5.61665 16.8403 5.81665 16.9968 5.96271C17.1533 6.10877 17.3593 6.19 17.5734 6.19C17.7874 6.19 17.9935 6.10877 18.15 5.96271C18.3064 5.81665 18.4017 5.61665 18.4164 5.4031ZM29.9374 6.2921C30.0851 6.13168 30.1651 5.92034 30.1606 5.7023C30.1561 5.48425 30.0675 5.27638 29.9133 5.12216C29.7591 4.96795 29.5512 4.87933 29.3332 4.87485C29.1151 4.87036 28.9038 4.95036 28.7434 5.0981L25.5744 8.2821C25.4266 8.44253 25.3466 8.65387 25.3511 8.87191C25.3556 9.08996 25.4442 9.29783 25.5984 9.45204C25.7526 9.60626 25.9605 9.69487 26.1786 9.69936C26.3966 9.70384 26.608 9.62385 26.7684 9.4761L29.9374 6.2921ZM29.7794 18.2351H34.2794C34.395 18.2431 34.511 18.2272 34.6201 18.1884C34.7293 18.1497 34.8294 18.0889 34.9141 18.0098C34.9988 17.9308 35.0663 17.8351 35.1125 17.7289C35.1587 17.6226 35.1825 17.508 35.1825 17.3921C35.1825 17.2762 35.1587 17.1616 35.1125 17.0554C35.0663 16.9491 34.9988 16.8535 34.9141 16.7744C34.8294 16.6953 34.7293 16.6345 34.6201 16.5958C34.511 16.557 34.395 16.5411 34.2794 16.5491H29.7794C29.5658 16.5638 29.3658 16.659 29.2198 16.8155C29.0737 16.972 28.9925 17.1781 28.9925 17.3921C28.9925 17.6062 29.0737 17.8122 29.2198 17.9687C29.3658 18.1252 29.5658 18.2204 29.7794 18.2351ZM25.7064 25.3931C25.6276 25.4713 25.565 25.5643 25.5224 25.6667C25.4797 25.7692 25.4577 25.8791 25.4577 25.9901C25.4577 26.1011 25.4797 26.211 25.5224 26.3135C25.565 26.4159 25.6276 26.5089 25.7064 26.5871L28.8904 29.7711C29.0487 29.9294 29.2635 30.0184 29.4874 30.0184C29.7113 30.0184 29.926 29.9294 30.0844 29.7711C30.2427 29.6128 30.3317 29.398 30.3317 29.1741C30.3317 28.9502 30.2427 28.7354 30.0844 28.5771L26.9004 25.3931C26.8222 25.3143 26.7292 25.2518 26.6267 25.2091C26.5243 25.1664 26.4144 25.1445 26.3034 25.1445C26.1924 25.1445 26.0825 25.1664 25.98 25.2091C25.8776 25.2518 25.7846 25.3143 25.7064 25.3931ZM16.9454 29.5971V34.0971C16.9374 34.2127 16.9533 34.3287 16.9921 34.4379C17.0308 34.5471 17.0916 34.6471 17.1707 34.7318C17.2497 34.8165 17.3454 34.884 17.4516 34.9302C17.5579 34.9764 17.6725 35.0002 17.7884 35.0002C17.9042 35.0002 18.0189 34.9764 18.1251 34.9302C18.2314 34.884 18.327 34.8165 18.4061 34.7318C18.4851 34.6471 18.5459 34.5471 18.5847 34.4379C18.6235 34.3287 18.6393 34.2127 18.6314 34.0971V29.5971C18.6167 29.3836 18.5214 29.1836 18.365 29.0375C18.2085 28.8914 18.0024 28.8102 17.7884 28.8102C17.5743 28.8102 17.3682 28.8914 17.2118 29.0375C17.0553 29.1836 16.9601 29.3836 16.9454 29.5971ZM5.40938 28.7081C5.29191 28.8266 5.21213 28.9771 5.1801 29.1409C5.14807 29.3046 5.16521 29.4741 5.22938 29.6281C5.29354 29.7821 5.40185 29.9137 5.54066 30.0062C5.67946 30.0987 5.84255 30.1481 6.00938 30.1481C6.12075 30.1492 6.23122 30.1281 6.33427 30.0858C6.43732 30.0436 6.53086 29.9811 6.60938 29.9021L9.79337 26.7181C9.94112 26.5577 10.0211 26.3463 10.0166 26.1283C10.0121 25.9102 9.92353 25.7024 9.76932 25.5482C9.6151 25.3939 9.40723 25.3053 9.18919 25.3008C8.97114 25.2964 8.7598 25.3764 8.59937 25.5241L5.40938 28.7081ZM0.234375 17.5951C0.235433 17.8185 0.32493 18.0324 0.483284 18.19C0.641638 18.3476 0.85596 18.4361 1.07938 18.4361H5.57938C5.79292 18.4214 5.99292 18.3262 6.13898 18.1697C6.28504 18.0132 6.36627 17.8072 6.36627 17.5931C6.36627 17.3791 6.28504 17.173 6.13898 17.0165C5.99292 16.86 5.79292 16.7648 5.57938 16.7501H1.07938C0.855268 16.7501 0.640341 16.8391 0.481873 16.9976C0.323404 17.1561 0.234375 17.371 0.234375 17.5951ZM9.65437 9.6071C9.73317 9.52893 9.79571 9.43592 9.83839 9.33346C9.88106 9.231 9.90303 9.1211 9.90303 9.0101C9.90303 8.89911 9.88106 8.78921 9.83839 8.68675C9.79571 8.58428 9.73317 8.49128 9.65437 8.4131L6.47038 5.2291C6.30995 5.08136 6.09862 5.00136 5.88057 5.00585C5.66252 5.01033 5.45465 5.09895 5.30044 5.25317C5.14622 5.40738 5.05761 5.61525 5.05312 5.83329C5.04864 6.05134 5.12863 6.26268 5.27637 6.4231L8.46037 9.6071C8.61919 9.76453 8.83375 9.85286 9.05737 9.85286C9.28099 9.85286 9.49556 9.76453 9.65437 9.6071Z" fill="white"/>
</svg>
