<svg width="22" height="22" viewBox="0 0 22 22" fill="none" xmlns="http://www.w3.org/2000/svg">
<path d="M21.7383 10.75C21.7383 7.89892 20.6057 5.16462 18.5897 3.1486C16.5737 1.13259 13.8394 0 10.9883 0C8.1372 0 5.4029 1.13259 3.38689 3.1486C1.37087 5.16462 0.238281 7.89892 0.238281 10.75V10.893C0.238281 13.7441 1.37087 16.4784 3.38689 18.4944C5.4029 20.5104 8.1372 21.643 10.9883 21.643C13.8394 21.643 16.5737 20.5104 18.5897 18.4944C20.6057 16.4784 21.7383 13.7441 21.7383 10.893V10.75ZM18.1313 17.15C17.4959 16.5874 16.7988 16.0986 16.0533 15.693C16.4098 14.294 16.611 12.86 16.6533 11.417H20.5233C20.3905 13.5436 19.5466 15.5638 18.1273 17.153L18.1313 17.15ZM1.45328 11.419H5.32328C5.36386 12.8622 5.5651 14.2964 5.92328 15.695C5.17266 16.0923 4.47459 16.5817 3.84528 17.152C2.42803 15.563 1.58563 13.5441 1.45328 11.419ZM3.84228 4.491C4.47767 5.05361 5.17479 5.5424 5.92028 5.948C5.55038 7.34429 5.34894 8.77983 5.32028 10.224H1.45028C1.58174 8.09978 2.42268 6.08123 3.83828 4.492L3.84228 4.491ZM10.3883 5.991C9.34612 5.92564 8.32147 5.6916 7.35428 5.298C8.07128 3.198 9.14628 1.715 10.3883 1.356V5.991ZM10.3883 7.185V10.219H6.51828C6.55452 8.94714 6.72208 7.68242 7.01828 6.445C8.09462 6.87074 9.23183 7.12256 10.3873 7.191L10.3883 7.185ZM10.3883 11.413V14.447C9.23346 14.5141 8.09662 14.7642 7.02028 15.188C6.72416 13.9506 6.55661 12.6859 6.52028 11.414L10.3883 11.413ZM10.3883 15.641V20.275C9.14628 19.917 8.07128 18.412 7.35428 16.333C8.32159 15.9422 9.3459 15.7108 10.3873 15.648L10.3883 15.641ZM11.5823 15.641C12.6244 15.7064 13.6491 15.9404 14.6163 16.334C13.8993 18.434 12.8243 19.917 11.5823 20.276V15.641ZM11.5823 14.447V11.419H15.4523C15.416 12.6909 15.2485 13.9556 14.9523 15.193C13.875 14.7691 12.7371 14.5193 11.5813 14.453L11.5823 14.447ZM11.5823 10.219V7.191C12.7371 7.12391 13.8739 6.8738 14.9503 6.45C15.2464 7.68744 15.414 8.95214 15.4503 10.224L11.5823 10.219ZM11.5823 5.991V1.362C12.8243 1.72 13.8993 3.225 14.6163 5.304C13.6487 5.69743 12.6237 5.93114 11.5813 5.996L11.5823 5.991ZM14.0903 1.791C15.2675 2.19887 16.3544 2.8316 17.2903 3.654C16.8021 4.07837 16.274 4.45445 15.7133 4.777C15.3502 3.69509 14.801 2.68491 14.0903 1.792V1.791ZM6.27828 4.774C5.71384 4.45734 5.18512 4.08084 4.70128 3.651C5.63724 2.82864 6.72404 2.19592 7.90128 1.788C7.17313 2.66959 6.62204 3.68348 6.27828 4.774ZM6.27828 16.862C6.64887 17.9363 7.18903 18.9444 7.87828 19.848C6.70102 19.4401 5.61422 18.8074 4.67828 17.985C5.17022 17.5549 5.70658 17.1784 6.27828 16.862ZM15.6903 16.862C16.2547 17.1787 16.7834 17.5552 17.2673 17.985C16.3313 18.8074 15.2445 19.4401 14.0673 19.848C14.795 18.9676 15.3461 17.9551 15.6903 16.866V16.862ZM16.6453 10.221C16.6166 8.77683 16.4152 7.34128 16.0453 5.945C16.7959 5.54773 17.494 5.05828 18.1233 4.488C19.5298 6.0834 20.3697 8.0989 20.5123 10.221H16.6453Z" fill="#3FBCE9"/>
</svg>
