<svg width="32" height="33" viewBox="0 0 32 33" fill="none" xmlns="http://www.w3.org/2000/svg">
<path fill-rule="evenodd" clip-rule="evenodd" d="M4.2617 28.2624L15.919 16.6264L4.2617 4.96906C3.97503 5.43172 3.77637 6.18239 3.77637 7.26506V25.9664C3.77637 27.0477 3.97503 27.7984 4.2617 28.2624ZM20.8404 21.5491L17.0217 17.7091L5.67503 29.0784H5.7857C6.75637 29.0784 7.59503 28.7251 8.9417 27.9971L20.8417 21.5491H20.8404ZM22.2724 12.4531L18.1217 16.6264L22.2724 20.7771L24.7897 19.4077C25.7164 18.9011 27.1297 17.9731 27.1297 16.6264C27.1297 15.2571 25.7164 14.3291 24.7897 13.8211L22.2724 12.4531ZM5.67503 4.15039L17.0217 15.5211L20.8417 11.6811L8.9417 5.23306C7.59503 4.50372 6.75637 4.15039 5.7857 4.15039H5.67503Z" fill="white"/>
</svg>
