<svg width="19" height="18" viewBox="0 0 19 18" fill="none" xmlns="http://www.w3.org/2000/svg">
<path d="M11.2951 11.1129C11.2951 10.876 11.4868 10.6845 11.7235 10.6845C11.9604 10.6845 12.1519 10.8761 12.1519 11.1129V14.6468C12.1519 15.5694 11.775 16.408 11.1669 17.0155C10.5595 17.6229 9.72074 18 8.79813 18H3.35378C2.43113 18 1.59309 17.6231 0.985023 17.0155C0.377598 16.4081 0 15.5694 0 14.6468V3.35323C0 2.43058 0.376917 1.592 0.985023 0.984478C1.59245 0.377053 2.43116 0 3.35378 0H8.79813C9.72077 0 10.5594 0.376917 11.1669 0.984478C11.7743 1.5919 12.1519 2.43062 12.1519 3.35323V6.88712C12.1519 7.124 11.9602 7.31552 11.7235 7.31552C11.4866 7.31552 11.2951 7.12386 11.2951 6.88712V3.35323C11.2951 2.66732 11.0142 2.04328 10.5612 1.59081C10.1087 1.13834 9.48468 0.857443 8.79877 0.857443H3.35442C2.66852 0.857443 2.04448 1.13834 1.592 1.59081C1.13953 2.04328 0.858634 2.66732 0.858634 3.35323V14.6468C0.858634 15.3327 1.13953 15.9567 1.592 16.4092C2.04448 16.8617 2.66852 17.1426 3.35442 17.1426H8.79877C9.48468 17.1426 10.1087 16.8617 10.5612 16.4092C11.0137 15.9567 11.2951 15.3327 11.2951 14.6468V11.1129ZM18.3751 8.60912C18.3968 8.63027 18.4164 8.65368 18.4335 8.67948L18.4341 8.68068L18.4393 8.68866L18.4398 8.68919L18.445 8.69717L18.4455 8.69837C18.4833 8.76181 18.5044 8.83629 18.5044 8.91569C18.5044 8.99523 18.4833 9.06957 18.4455 9.13302L18.445 9.13421L18.4398 9.14286L18.4393 9.14339L18.4341 9.15137L18.4335 9.15257C18.4164 9.17771 18.397 9.20178 18.3751 9.22293L14.7977 12.7997C14.6301 12.9673 14.3589 12.9673 14.1918 12.7997C14.0243 12.6321 14.0243 12.3609 14.1918 12.1939L17.041 9.34472H6.82887C6.59199 9.34472 6.40047 9.15306 6.40047 8.91632C6.40047 8.67944 6.59212 8.48792 6.82887 8.48792H17.041L14.1918 5.63875C14.0243 5.47116 14.0243 5.19996 14.1918 5.03292C14.3594 4.86534 14.6306 4.86534 14.7977 5.03292L18.3751 8.61039V8.60912Z" fill="#969696"/>
</svg>
