<svg width="92" height="33" viewBox="0 0 92 33" fill="none" xmlns="http://www.w3.org/2000/svg">
<path d="M29.478 25.5891H32.669V18.0451H39.554L40.054 15.1881H32.669V9.0301H40.685V6.1731H29.478V25.5891Z" fill="white"/>
<path d="M45.9932 6.1731H42.8032V25.5891H51.1922L51.6922 22.7321H45.9922L45.9932 6.1731Z" fill="white"/>
<path d="M72.5578 6.17407H69.2568V25.5901H72.5578V6.17407Z" fill="white"/>
<path d="M81.5163 6.17302H75.2163V25.589H81.5163C82.8222 25.6386 84.1247 25.4242 85.3458 24.9587C86.5669 24.4932 87.6815 23.7861 88.623 22.8797C89.5644 21.9733 90.3133 20.8864 90.8248 19.6838C91.3364 18.4812 91.6 17.1878 91.6 15.881C91.6 14.5742 91.3364 13.2808 90.8248 12.0782C90.3133 10.8757 89.5644 9.78869 88.623 8.88232C87.6815 7.97596 86.5669 7.26885 85.3458 6.80332C84.1247 6.33779 82.8222 6.12342 81.5163 6.17302ZM81.5163 22.732H78.4073V9.03202H81.5143C82.4171 9.01194 83.3146 9.17582 84.152 9.51367C84.9895 9.85151 85.7494 10.3563 86.3856 10.9972C87.0217 11.6381 87.5208 12.4018 87.8524 13.2418C88.184 14.0817 88.3411 14.9804 88.3143 15.883C88.3411 16.7857 88.184 17.6843 87.8524 18.5243C87.5208 19.3642 87.0217 20.1279 86.3856 20.7688C85.7494 21.4098 84.9895 21.9145 84.152 22.2524C83.3146 22.5902 82.4171 22.7541 81.5143 22.734" fill="white"/>
<path d="M63.5444 19.0991C63.5842 19.6224 63.5155 20.1484 63.3426 20.6439C63.1697 21.1395 62.8963 21.594 62.5396 21.9789C62.1828 22.3639 61.7504 22.671 61.2694 22.881C60.7884 23.091 60.2692 23.1994 59.7444 23.1994C59.2195 23.1994 58.7003 23.091 58.2193 22.881C57.7384 22.671 57.3059 22.3639 56.9492 21.9789C56.5924 21.594 56.319 21.1395 56.1461 20.6439C55.9732 20.1484 55.9045 19.6224 55.9444 19.0991V6.1731H52.7564V19.0991C52.7536 20.0209 52.9249 20.9349 53.2614 21.7931C53.4034 22.1527 53.5757 22.4996 53.7764 22.8301C54.5954 24.1036 55.8032 25.0791 57.2205 25.6118C58.6379 26.1444 60.1892 26.2059 61.6443 25.7869C63.0993 25.368 64.3805 24.4911 65.2976 23.2863C66.2147 22.0815 66.7189 20.6131 66.7354 19.0991V6.1731H63.5454L63.5444 19.0991Z" fill="white"/>
<path d="M13.479 14.965L11.724 19.748L18.586 19.72L19.425 14.965H13.479ZM0 4.788V32.23H5.294V24.521H9.972L11.724 19.748L5.295 19.767V9.56H9.972L11.724 4.788H0ZM13.479 0L11.724 4.788H18.55L19.389 0H13.479Z" fill="#36BBEB"/>
<path d="M13.479 14.965L11.724 19.748L18.586 19.72L19.425 14.965H13.479ZM0 4.788V32.23H5.294V24.521H9.972L11.724 19.748L5.295 19.767V9.56H9.972L11.724 4.788H0ZM13.479 0L11.724 4.788H18.55L19.389 0H13.479Z" fill="#36BBEB"/>
</svg>
