<svg width="18" height="18" viewBox="0 0 18 18" fill="none" xmlns="http://www.w3.org/2000/svg">
<path fill-rule="evenodd" clip-rule="evenodd" d="M12.1967 4.29892C12.1967 6.01058 10.8092 7.3981 9.09752 7.3981C7.38599 7.3981 5.99846 6.01055 5.99846 4.29892C5.99846 2.58729 7.38602 1.19973 9.09752 1.19973C10.8092 1.19973 12.1967 2.58729 12.1967 4.29892ZM13.3965 4.29892C13.3965 6.67309 11.4718 8.59783 9.09755 8.59783C6.72338 8.59783 4.79864 6.67315 4.79864 4.29892C4.79864 1.92474 6.72332 0 9.09755 0C11.4719 0 13.3965 1.92468 13.3965 4.29892ZM14.5115 12.4813C15.6882 13.6578 16.4498 15.1716 16.7027 16.7956H1.2927C1.5455 15.1717 2.30717 13.6579 3.48386 12.4813C4.94623 11.0188 6.92962 10.1972 8.99778 10.1972C11.0659 10.1972 13.0493 11.0188 14.5117 12.4813H14.5115ZM15.3598 11.633C16.7619 13.035 17.6535 14.8522 17.9148 16.7957C17.9681 17.1911 17.9952 17.5919 17.9952 17.9953H0C0 17.5919 0.0271133 17.1911 0.0803356 16.7957C0.341677 14.8523 1.23328 13.035 2.63539 11.633C4.3227 9.94554 6.61136 8.99758 8.99765 8.99758C11.3839 8.99758 13.6725 9.94554 15.3599 11.633H15.3598Z" fill="#969696"/>
</svg>
