<svg width="18" height="18" viewBox="0 0 18 18" fill="none" xmlns="http://www.w3.org/2000/svg">
<path d="M9 1.12494C4.65117 1.12494 1.125 4.65111 1.125 8.99994C1.125 13.3488 4.65117 16.8749 9 16.8749C13.3488 16.8749 16.875 13.3488 16.875 8.99994C16.875 4.65111 13.3488 1.12494 9 1.12494ZM9 15.539C5.38945 15.539 2.46094 12.6105 2.46094 8.99994C2.46094 5.38939 5.38945 2.46088 9 2.46088C12.6105 2.46088 15.5391 5.38939 15.5391 8.99994C15.5391 12.6105 12.6105 15.539 9 15.539Z" fill="#3FBCE9"/>
<path d="M8.15625 12.0937C8.15625 12.3175 8.24514 12.5321 8.40338 12.6903C8.56161 12.8485 8.77622 12.9374 9 12.9374C9.22378 12.9374 9.43839 12.8485 9.59662 12.6903C9.75485 12.5321 9.84375 12.3175 9.84375 12.0937C9.84375 11.8699 9.75485 11.6553 9.59662 11.4971C9.43839 11.3388 9.22378 11.2499 9 11.2499C8.77622 11.2499 8.56161 11.3388 8.40338 11.4971C8.24514 11.6553 8.15625 11.8699 8.15625 12.0937ZM8.57812 10.1249H9.42188C9.49922 10.1249 9.5625 10.0617 9.5625 9.98431V5.20306C9.5625 5.12572 9.49922 5.06244 9.42188 5.06244H8.57812C8.50078 5.06244 8.4375 5.12572 8.4375 5.20306V9.98431C8.4375 10.0617 8.50078 10.1249 8.57812 10.1249Z" fill="#3FBCE9"/>
</svg>
