<svg width="22" height="22" viewBox="0 0 22 22" fill="none" xmlns="http://www.w3.org/2000/svg">
<g clip-path="url(#clip0_615_2093)">
<path d="M10.0003 14.6667L13.667 11H10.917V2.75H9.08366V11H6.33366L10.0003 14.6667ZM18.2503 2.75H12.7503V4.57417H18.2503V17.435H1.75033V4.57417H7.25033V2.75H1.75033C0.741992 2.75 -0.0830078 3.575 -0.0830078 4.58333V17.4167C-0.0830078 18.425 0.741992 19.25 1.75033 19.25H18.2503C19.2587 19.25 20.0837 18.425 20.0837 17.4167V4.58333C20.0837 3.575 19.2587 2.75 18.2503 2.75ZM10.0003 14.6667L13.667 11H10.917V2.75H9.08366V11H6.33366L10.0003 14.6667ZM20.0837 2.75H12.7503V4.57417H18.2503V17.435H1.75033V4.57417H7.25033V2.75H-0.0830078V19.25H20.0837V2.75Z" fill="#E9E9F0"/>
</g>
<defs>
<clipPath id="clip0_615_2093">
<rect width="22" height="22" fill="white"/>
</clipPath>
</defs>
</svg>
