<svg width="20" height="20" viewBox="0 0 20 20" fill="none" xmlns="http://www.w3.org/2000/svg">
<path d="M9.45274 17.5958L9.50522 17.5433C8.56918 18.4757 7.30169 18.9993 5.98051 18.9993C4.65939 18.9993 3.39213 18.4757 2.45602 17.5433C1.52366 16.6073 1 15.34 1 14.0188C1 12.6977 1.52362 11.4302 2.45602 10.4941L4.51069 8.43945" stroke="#969696" stroke-linecap="round" stroke-linejoin="round"/>
<path d="M10.5476 2.40354L10.4951 2.45602C11.4312 1.52366 12.6986 1 14.0198 1C15.3409 1 16.6082 1.52361 17.5443 2.45602C18.4767 3.39205 19.0003 4.65932 19.0003 5.9805C19.0003 7.30161 18.4767 8.56911 17.5443 9.50522L15.4896 11.5599" stroke="#969696" stroke-linecap="round" stroke-linejoin="round"/>
<path d="M13.6599 18.6986L6.34082 1.30078" stroke="#969696" stroke-linecap="round" stroke-linejoin="round"/>
</svg>
