<svg width="18" height="18" viewBox="0 0 18 18" fill="none" xmlns="http://www.w3.org/2000/svg">
<path d="M8.9998 4.50702C10.2408 4.50702 11.3651 5.0103 12.1783 5.82356C12.9916 6.63682 13.4949 7.76107 13.4949 9.00208C13.4949 10.2431 12.9916 11.3673 12.1783 12.1806C11.3651 12.9939 10.2408 13.4972 8.9998 13.4972C7.75879 13.4972 6.63454 12.9939 5.82128 12.1806C5.00802 11.3673 4.50473 10.2431 4.50473 9.00208C4.50473 7.76107 5.00802 6.63682 5.82128 5.82356C6.63454 5.0103 7.75879 4.50702 8.9998 4.50702ZM11.2284 2.12913C11.4126 2.18856 11.591 2.25438 11.7643 2.32579C11.9404 2.39905 12.1137 2.4791 12.2841 2.5666L13.1207 1.72995C13.3043 1.54632 13.5462 1.4543 13.7875 1.4543C14.0272 1.4543 14.2685 1.54632 14.4537 1.73048L14.4543 1.72929L16.2722 3.54725C16.2831 3.55815 16.2928 3.56892 16.302 3.57982C16.4661 3.76 16.5479 3.98763 16.5479 4.21342C16.5479 4.45476 16.4558 4.69611 16.2722 4.88027L15.4356 5.71637C15.5231 5.88684 15.6031 6.06011 15.6757 6.23562C15.7478 6.40942 15.8136 6.58852 15.873 6.77254H17.0557C17.3136 6.77254 17.5486 6.87839 17.7202 7.04938L17.7232 7.05231C17.8936 7.22384 17.9988 7.45892 17.9988 7.71569V10.2869C17.9988 10.5449 17.8924 10.7805 17.7214 10.952L17.7226 10.9532C17.5522 11.1237 17.316 11.2301 17.0565 11.2301H15.8733C15.8139 11.4143 15.748 11.5932 15.6766 11.7659C15.6034 11.9421 15.5233 12.1154 15.4358 12.2857L16.2725 13.1224C16.2834 13.1333 16.2931 13.1435 16.3023 13.155C16.4663 13.3351 16.5481 13.5628 16.5481 13.7886C16.5481 14.0299 16.4561 14.2713 16.2725 14.4554L14.4545 16.2734C14.2709 16.457 14.029 16.549 13.7877 16.549C13.5475 16.549 13.3062 16.457 13.1225 16.2734L13.1213 16.2722L13.1208 16.2734L12.2842 15.4367C12.1137 15.5242 11.941 15.6043 11.7649 15.6769C11.5911 15.7489 11.411 15.8153 11.2263 15.8747V17.0569H11.228C11.228 17.3148 11.1221 17.5498 10.9511 17.7214L10.9482 17.7243C10.7767 17.8948 10.5416 18 10.2848 18H7.7136C7.4563 18 7.2207 17.8942 7.04903 17.7232L7.0461 17.7202C6.87564 17.5487 6.77045 17.3136 6.77045 17.0569H6.77218V15.8742C6.58749 15.8148 6.40785 15.749 6.23404 15.6769C6.05785 15.6036 5.88458 15.5236 5.71424 15.4361L4.8776 16.2727C4.69397 16.4564 4.45209 16.5484 4.21075 16.5484C3.9706 16.5484 3.72924 16.4564 3.54563 16.2727L3.54443 16.2715L3.5439 16.2727L1.72594 14.4548C1.7157 14.4445 1.70586 14.4342 1.69735 14.4227C1.53327 14.2432 1.45083 14.0149 1.45083 13.7879C1.45083 13.5466 1.54284 13.3047 1.72647 13.1211L2.56312 12.2844C2.47563 12.114 2.39558 11.9412 2.32297 11.7652C2.2509 11.5919 2.18508 11.4123 2.12565 11.2283H0.943014C0.683323 11.2283 0.447182 11.1224 0.276844 10.9514C0.26594 10.9405 0.256233 10.9298 0.247058 10.9188C0.0937437 10.7508 0 10.5277 0 10.2858V7.71452C0 7.45483 0.105845 7.21869 0.276844 7.04835C0.287747 7.03745 0.298518 7.02827 0.309421 7.01857C0.477496 6.86525 0.699967 6.77151 0.942505 6.77151H2.12568C2.18512 6.58734 2.25094 6.40837 2.32301 6.2351C2.39627 6.05891 2.47632 5.88564 2.56315 5.7153L1.72651 4.87866C1.71627 4.86842 1.70643 4.85752 1.69792 4.84661C1.53384 4.6671 1.45139 4.43881 1.45139 4.21183C1.45139 3.97049 1.54341 3.72913 1.72704 3.54498L3.545 1.72702C3.72863 1.54338 3.97051 1.45137 4.21185 1.45137C4.45147 1.45137 4.69281 1.54338 4.87803 1.72755L4.87856 1.72635L5.7152 2.56299C5.88567 2.4755 6.05894 2.39545 6.235 2.32219C6.40826 2.25012 6.58725 2.1843 6.77086 2.12552V0.942348C6.77086 0.682658 6.87671 0.446516 7.04771 0.276178C7.05794 0.265939 7.06885 0.256099 7.07975 0.247589C7.24729 0.0937438 7.4703 0 7.71403 0H10.2853C10.5438 0 10.7789 0.105845 10.9498 0.276844L10.9504 0.27804L10.9516 0.276844C11.122 0.447311 11.2284 0.683456 11.2284 0.943014L11.2284 2.12913ZM11.4366 3.11616C11.2015 3.01843 10.9631 2.93545 10.724 2.86857C10.5239 2.83254 10.3718 2.65755 10.3718 2.44705V0.946481C10.3718 0.923078 10.3621 0.901936 10.346 0.885848L10.3472 0.884652C10.3312 0.869759 10.3099 0.860052 10.286 0.860052H7.71477C7.69535 0.860052 7.677 0.866301 7.66278 0.877205L7.65413 0.885849C7.63818 0.901805 7.62834 0.923082 7.62834 0.946481V2.44705H7.62661C7.62661 2.6352 7.50188 2.8074 7.31213 2.85887C7.06055 2.92748 6.81058 3.01445 6.56352 3.11683C6.3251 3.21576 6.09624 3.32732 5.87726 3.45085C5.71078 3.56295 5.4826 3.5458 5.33513 3.3982L4.27376 2.33682L4.27429 2.33562L4.27376 2.33509C4.25833 2.31966 4.23599 2.31222 4.21259 2.31222C4.19025 2.31222 4.16804 2.32086 4.15196 2.33682L2.33399 4.15478C2.31804 4.17073 2.30939 4.19307 2.30939 4.21541C2.30939 4.23429 2.31458 4.25318 2.32602 4.2686L3.3955 5.33808L3.3943 5.33928C3.527 5.47198 3.56078 5.68128 3.46411 5.85226C3.33433 6.07991 3.21705 6.31886 3.11414 6.56711C3.01694 6.80274 2.93343 7.04062 2.86655 7.27972C2.83052 7.47984 2.65553 7.63197 2.44503 7.63197H0.944461C0.925047 7.63197 0.907227 7.63821 0.893533 7.64792L0.884358 7.65763C0.868402 7.67358 0.858562 7.69486 0.858562 7.71826V10.2895C0.858562 10.3089 0.864812 10.3267 0.874519 10.3404L0.884225 10.3496C0.900182 10.3656 0.921459 10.3754 0.944858 10.3754H2.44488V10.3771C2.63303 10.3771 2.80523 10.5019 2.8567 10.6916C2.92531 10.9432 3.01228 11.1937 3.11466 11.4413C3.21306 11.6792 3.32516 11.9085 3.44802 12.1275C3.56012 12.294 3.54296 12.5222 3.39536 12.6697L2.33399 13.731C2.31803 13.7477 2.30939 13.7699 2.30939 13.7922C2.30939 13.8111 2.31457 13.83 2.32601 13.8454L4.1521 15.6715L4.15091 15.6727C4.16686 15.6886 4.18973 15.6961 4.2126 15.6961C4.23494 15.6961 4.25715 15.6874 4.27377 15.6715L5.33515 14.6101L5.33568 14.6106C5.46839 14.4779 5.67769 14.4442 5.84867 14.5415C6.07632 14.6713 6.31472 14.7886 6.56352 14.8915C6.80765 14.9927 7.05472 15.0784 7.30298 15.1465C7.48887 15.1928 7.62663 15.3605 7.62663 15.5606V17.0611H7.62836C7.62836 17.0857 7.63753 17.1069 7.65243 17.1218L7.65415 17.1235C7.66905 17.1384 7.69019 17.1476 7.71479 17.1476H10.286C10.3106 17.1476 10.3318 17.1384 10.3467 17.1235L10.3484 17.1218C10.3633 17.1069 10.3725 17.0857 10.3725 17.0611H10.3742V15.5646C10.3725 15.3752 10.4977 15.2009 10.6887 15.1488C10.9402 15.0801 11.1908 14.9932 11.4378 14.8908C11.6762 14.7924 11.9051 14.6803 12.1241 14.5574C12.2906 14.4453 12.5187 14.4625 12.6662 14.6101L13.7276 15.6715L13.727 15.6727C13.743 15.6886 13.7659 15.6961 13.7887 15.6961C13.8111 15.6961 13.8333 15.6874 13.8494 15.6715L15.6673 13.8535C15.6833 13.8376 15.6919 13.8152 15.6919 13.7929C15.6919 13.774 15.6868 13.7551 15.6765 13.7409L14.606 12.6703L14.6065 12.6698C14.4738 12.5371 14.44 12.3278 14.5374 12.1568C14.6671 11.9292 14.7844 11.6908 14.8873 11.442C14.9851 11.2069 15.068 10.9685 15.1349 10.7294C15.171 10.5293 15.346 10.3771 15.5565 10.3771H17.057C17.0804 10.3771 17.1016 10.3674 17.1177 10.3513L17.1188 10.3525L17.12 10.3513C17.1349 10.3364 17.1441 10.3153 17.1441 10.2907V7.71946C17.1441 7.69486 17.1349 7.67372 17.12 7.65883L17.1183 7.6571C17.1034 7.64221 17.0823 7.63303 17.0577 7.63303H15.5577V7.6313C15.3695 7.6313 15.1973 7.50657 15.1458 7.31683C15.0772 7.06525 14.9903 6.81473 14.8879 6.56767C14.7895 6.32925 14.6774 6.10039 14.5545 5.88141C14.4424 5.71493 14.4596 5.48675 14.6072 5.33928L15.6686 4.2779C15.6845 4.26128 15.6932 4.23961 15.6932 4.21674C15.6932 4.19786 15.688 4.17897 15.6777 4.16475L13.8506 2.33814L13.8518 2.33694L13.8506 2.33641C13.8357 2.32099 13.8133 2.31354 13.7899 2.31354C13.7676 2.31354 13.7454 2.32218 13.7288 2.33814L12.6674 3.39952L12.6669 3.39899C12.5342 3.53169 12.3249 3.56547 12.1539 3.46813C11.9262 3.33835 11.6878 3.22107 11.439 3.11816L11.4366 3.11616ZM11.5728 6.42965C10.9146 5.77145 10.0047 5.36429 8.99995 5.36429C7.99507 5.36429 7.08531 5.77145 6.4271 6.42965C5.7689 7.08786 5.36174 7.99776 5.36174 9.00249C5.36174 10.0074 5.7689 10.9171 6.4271 11.5753C7.08531 12.2335 7.99521 12.6407 8.99995 12.6407C10.0048 12.6407 10.9146 12.2335 11.5728 11.5753C12.231 10.9171 12.6381 10.0072 12.6381 9.00249C12.6381 7.99762 12.231 7.08786 11.5728 6.42965Z" fill="#969696"/>
</svg>
