<svg width="24" height="24" viewBox="0 0 24 24" fill="none" xmlns="http://www.w3.org/2000/svg">
<path d="M5.51832 11C5.52549 11 5.53266 11 5.53984 10.9998C5.82368 10.9866 6.04384 10.7186 6.03237 10.4014C5.98037 8.99544 6.46054 7.61872 7.3492 6.62478C9.10748 4.65812 11.9679 4.65833 13.7264 6.62478C14.386 7.36298 14.8194 8.29437 14.9797 9.31861C15.0285 9.63154 15.2953 9.84076 15.5745 9.786C15.8542 9.73144 16.041 9.43315 15.9923 9.12021C15.7954 7.86186 15.2632 6.71787 14.4533 5.81154C12.2943 3.39615 8.78119 3.39615 6.62196 5.81154C5.53055 7.03256 4.94116 8.72299 5.00465 10.449C5.0163 10.7577 5.2442 11 5.5182 11L5.51832 11Z" fill="#D9E5FF"/>
<path d="M16.0261 13.0129C15.702 12.7008 15.1372 12.7 14.8127 13.0131L14.6328 13.1868L14.43 12.9914C14.7791 12.5866 15.0595 12.1364 15.263 11.6459C15.3631 11.4048 15.2418 11.1306 14.9921 11.034C14.7414 10.937 14.4587 11.0545 14.3583 11.2956C14.1436 11.8128 13.8256 12.277 13.4133 12.6751C11.7466 14.2836 9.03484 14.2838 7.36839 12.6751C7.19078 12.5036 7.0288 12.3172 6.88673 12.1213C6.73223 11.9086 6.4287 11.8566 6.20788 12.0057C5.98744 12.1546 5.93373 12.448 6.08823 12.6611C6.26295 12.9015 6.4618 13.1303 6.67901 13.3403C7.70238 14.3281 9.04641 14.8223 10.3905 14.8223C11.5819 14.8223 12.7722 14.4323 13.7403 13.6563L13.9432 13.8521L13.7629 14.0262C13.6006 14.1826 13.5115 14.3908 13.5115 14.6121C13.5115 14.8335 13.6009 15.0417 13.7629 15.1979L18.4855 19.7573C18.6475 19.914 18.8632 20 19.0924 20C19.3215 20 19.5371 19.9139 19.6992 19.7573L20.7489 18.7441C21.0837 18.4208 21.0837 17.8954 20.7489 17.5722L16.0261 13.0129ZM19.0927 19.0131L14.5341 14.6125L15.4193 13.7579L19.9779 18.159L19.0927 19.0131Z" fill="#D9E5FF"/>
<path d="M22.1656 4.00005C21.1535 4.00005 20.3302 4.8211 20.3302 5.82989C20.3302 6.27488 20.4907 6.68298 20.7564 7.00046L19.2202 9.1471C19.0344 9.08367 18.8356 9.04779 18.6289 9.04779C17.8137 9.04779 17.1216 9.58105 16.8831 10.3158L12.31 9.44269C12.1178 8.35126 11.1626 7.51889 10.0136 7.51889C8.72682 7.51889 7.67995 8.5626 7.67995 9.84546C7.67995 9.90655 7.68447 9.96647 7.68899 10.0264L3.23082 11.9849C2.89381 11.5914 2.39375 11.3408 1.83538 11.3408C0.823188 11.3403 0 12.1612 0 13.1702C0 14.1791 0.823188 15 1.83504 15C2.84706 15 3.67042 14.179 3.67042 13.1702C3.67042 13.0608 3.65921 12.9545 3.64046 12.8502L7.96062 10.9522C8.35623 11.678 9.12754 12.1719 10.0127 12.1719C11.1037 12.1719 12.0196 11.4204 12.274 10.4103L16.8393 11.282C17.0246 12.0967 17.7554 12.7074 18.6278 12.7074C19.6398 12.7074 20.4632 11.8867 20.4632 10.8776C20.4632 10.4211 20.2934 10.004 20.0148 9.68283L21.542 7.54919C21.7369 7.61946 21.946 7.65968 22.1646 7.65968C23.1766 7.65968 24 6.83864 24 5.82984C24.0007 4.82087 23.1775 4.00005 22.1656 4.00005ZM1.83507 14.0427C1.35274 14.0427 0.959983 13.6512 0.959983 13.1701C0.959983 12.6889 1.35258 12.2977 1.83507 12.2977C2.31775 12.2977 2.71034 12.6891 2.71034 13.1701C2.7105 13.651 2.31808 14.0427 1.83507 14.0427ZM10.0134 11.2149C9.25598 11.2149 8.63989 10.6005 8.63989 9.84521C8.63989 9.0901 9.25598 8.47586 10.0134 8.47586C10.7708 8.47586 11.3872 9.0901 11.3872 9.84521C11.3872 10.6003 10.7708 11.2149 10.0134 11.2149ZM18.6289 11.7503C18.1462 11.7503 17.7538 11.3589 17.7538 10.8774C17.7538 10.3962 18.1464 10.0048 18.6289 10.0048C19.1114 10.0048 19.5041 10.3962 19.5041 10.8774C19.5044 11.3589 19.1115 11.7503 18.6289 11.7503ZM22.1659 6.70272C21.6832 6.70272 21.2906 6.31132 21.2906 5.83011C21.2906 5.34889 21.6835 4.95749 22.1659 4.95749C22.6484 4.95749 23.0413 5.34856 23.0413 5.82976C23.0413 6.31097 22.6484 6.70272 22.1659 6.70272Z" fill="#D9E5FF"/>
</svg>
