<svg width="24" height="24" viewBox="0 0 24 24" fill="none" xmlns="http://www.w3.org/2000/svg">
<path d="M24 12L20.2255 9.68182L24 7.36392L12 0L0 7.36392L3.77455 9.6821L0 12L3.77455 14.3182L0 16.6361L12 24L24 16.6361L20.2255 14.3182L24 12ZM2.06737 7.36399L12 1.26761L21.9326 7.36399L19.2054 9.0445L12 13.4641L4.80828 9.04822L2.06737 7.36399ZM2.06737 12L4.79464 10.3195L12 14.7354L19.1917 10.3195L21.919 12L19.1917 13.6805L12 18.1004L4.80828 13.6805L2.06737 12ZM21.9331 16.636L12.0005 22.7324L2.06786 16.636L4.79513 14.9555L12.0005 19.3676L19.1922 14.9517L21.9331 16.636Z" fill="#D9E5FF"/>
</svg>
