<svg width="24" height="24" viewBox="0 0 24 24" fill="none" xmlns="http://www.w3.org/2000/svg">
<path d="M6.57445 24C10.1997 24 13.1489 21.0506 13.1489 17.4256C13.1489 13.8 10.1995 10.8507 6.57445 10.8507C2.94941 10.8505 0 13.7998 0 17.4256C0 21.0506 2.94937 24 6.57445 24ZM6.57445 11.6248C9.77302 11.6248 12.3747 14.2268 12.3747 17.4256C12.3752 20.6239 9.77302 23.2258 6.57445 23.2258C3.37588 23.2258 0.774194 20.6238 0.774194 17.4256C0.774194 14.227 3.37619 11.6248 6.57445 11.6248ZM17.4256 0C13.8 0 10.8507 2.94937 10.8507 6.57445C10.8507 10.2 13.8 13.1493 17.4251 13.1493C21.0503 13.1495 24 10.2002 24 6.57445C24 2.94941 21.0506 0 17.4256 0ZM17.4256 12.3752C14.227 12.3752 11.6253 9.77316 11.6253 6.57445C11.6248 3.37606 14.227 0.774194 17.4256 0.774194C20.6241 0.774194 23.2258 3.37619 23.2258 6.57445C23.2258 9.77302 20.6238 12.3752 17.4256 12.3752ZM20.311 5.01102C20.311 5.22462 20.138 5.39812 19.9239 5.39812H19.4191C19.2434 5.39812 19.0894 5.27974 19.0448 5.1097C18.7607 4.03083 18.3368 3.64877 17.4252 3.64877C16.4943 3.64877 15.8188 4.22163 15.8188 5.01105C15.8188 5.89982 16.7057 6.14177 17.4496 6.18857C18.9252 6.28102 19.8063 7.01046 19.8063 8.13874C19.8063 9.23766 18.9721 10.0901 17.8127 10.2469V10.9374C17.8127 11.151 17.6398 11.3245 17.4256 11.3245C17.2115 11.3245 17.0385 11.151 17.0385 10.9374V10.2449C15.8704 10.0998 15.3915 9.31056 15.1414 8.52584H14.9273C14.7132 8.52584 14.5402 8.35234 14.5402 8.13874C14.5402 7.92515 14.7132 7.75165 14.9273 7.75165H15.4321C15.6078 7.75165 15.7618 7.87002 15.8064 8.04041C16.0905 9.11893 16.5144 9.50134 17.426 9.50134C18.3569 9.50134 19.0324 8.92848 19.0324 8.13871C19.0324 7.25029 18.1455 7.00799 17.4016 6.96119C15.926 6.86873 15.0449 6.13983 15.0449 5.01101C15.0449 3.9121 15.8791 3.05965 17.0385 2.90291V2.21184C17.0385 1.99825 17.2114 1.82474 17.4256 1.82474C17.6397 1.82474 17.8127 1.99825 17.8127 2.21184V2.90481C18.9808 3.04997 19.4597 3.8392 19.7098 4.62392H19.9239C20.1375 4.62392 20.311 4.79726 20.311 5.01102ZM3.88658 7.88903C3.79914 7.77135 3.78549 7.61495 3.85133 7.48414C3.91717 7.35332 4.0511 7.27089 4.19747 7.27089H4.82306C5.07035 5.65322 6.46701 4.40912 8.1528 4.40912H8.95221C9.16633 4.40912 9.33931 4.58262 9.33931 4.79621C9.33931 5.00981 9.16633 5.18331 8.95221 5.18331H8.1528C6.89507 5.18331 5.84336 6.08208 5.6054 7.27089H6.13645C6.28282 7.27089 6.41675 7.35332 6.48259 7.48414C6.54843 7.61495 6.53478 7.7717 6.44734 7.88903L5.47805 9.19202C5.40495 9.29035 5.28985 9.34807 5.16716 9.34807C5.04429 9.34807 4.92937 9.29035 4.85628 9.19202L3.88658 7.88903ZM18.395 16.729H17.8639C17.7176 16.729 17.5836 16.6466 17.5178 16.5157C17.4519 16.3849 17.4656 16.2282 17.553 16.1109L18.5223 14.8079C18.669 14.6112 18.9972 14.6116 19.1436 14.8079L20.1132 16.1109C20.2007 16.2285 20.2143 16.3849 20.1485 16.5157C20.0826 16.6466 19.9487 16.729 19.8023 16.729H19.1767C18.9295 18.3467 17.5328 19.5908 15.847 19.5908H15.0476C14.8335 19.5908 14.6605 19.4173 14.6605 19.2037C14.6605 18.9901 14.8335 18.8166 15.0476 18.8166H15.847C17.1054 18.8166 18.1568 17.9181 18.395 16.729ZM3.19202 19.6017L6.3809 21.4431C6.44053 21.4775 6.5074 21.495 6.57445 21.495C6.6415 21.495 6.70838 21.4779 6.768 21.4431L9.95724 19.6017C10.0772 19.5324 10.1508 19.4046 10.1508 19.2664V15.584C10.1508 15.4457 10.0772 15.3177 9.95724 15.2487L6.768 13.4073C6.64842 13.338 6.50049 13.338 6.3809 13.4073L3.19202 15.2487C3.07209 15.318 2.99847 15.4457 2.99847 15.584V19.2664C2.99847 19.4046 3.07244 19.5324 3.19202 19.6017ZM3.77267 16.2545L6.18736 17.6487V20.437L3.77267 19.0428V16.2545ZM6.96155 20.4374V17.6487L9.37659 16.2545V19.0431L6.96155 20.4374ZM6.57445 14.1899L8.98949 15.5841L6.57445 16.9784L4.15976 15.5841L6.57445 14.1899Z" fill="#D9E5FF"/>
</svg>
