<svg width="21" height="23" viewBox="0 0 21 23" fill="none" xmlns="http://www.w3.org/2000/svg">
<path d="M19.1193 15.1273V12.6171C19.1193 12.0241 18.6004 11.5414 17.9626 11.5414H17.1182V9.75762C17.1182 9.27493 16.6969 8.88198 16.1795 8.88198H13.1126C13.8699 7.95036 14.3211 6.78518 14.3211 5.52159C14.3211 2.47705 11.7052 0 8.49014 0C5.275 0 2.65915 2.4771 2.65915 5.52159C2.65915 6.78518 3.11089 7.95036 3.86771 8.88198H1.95789C0.890694 8.88198 0.0224609 9.68488 0.0224609 10.6716C0.0224609 10.7261 0.0259634 10.7802 0.0314353 10.8334C0.0264014 10.8604 0.0224609 10.8884 0.0224609 10.9168V21.9244C0.0224609 22.5173 0.54139 23 1.17958 23H17.9627C18.6007 23 19.1194 22.5173 19.1194 21.9244V19.593C19.7142 19.5025 20.1706 19.0142 20.1706 18.4258V16.2944C20.1702 15.706 19.7141 15.2179 19.1194 15.1274L19.1193 15.1273ZM8.48997 0.919787C11.1695 0.919787 13.3494 2.98422 13.3494 5.52138C13.3494 8.05875 11.1693 10.123 8.48997 10.123C5.81042 10.123 3.6307 8.05854 3.6307 5.52138C3.6307 2.984 5.81036 0.919787 8.48997 0.919787ZM1.95806 9.80198H4.67918C4.71858 9.80198 4.75644 9.79617 4.79277 9.78809C5.79979 10.5721 7.0878 11.0432 8.49005 11.0432C9.91067 11.0432 11.2134 10.5591 12.2261 9.75679C12.2889 9.78497 12.3587 9.80197 12.4327 9.80197H16.1464V11.5412H1.95804C1.42664 11.5412 0.993945 11.151 0.993945 10.6714C0.993945 10.192 1.42643 9.80192 1.95804 9.80192L1.95806 9.80198ZM17.9623 22.0798H1.17925C1.07879 22.0798 0.993867 22.0085 0.993867 21.9243V12.2208C1.27817 12.3728 1.60672 12.461 1.95797 12.461H17.9622C18.0627 12.461 18.1476 12.5323 18.1476 12.6165V15.1103L14.9154 15.1106C13.6357 15.1106 12.5945 16.0965 12.5945 17.3083V17.4117C12.5945 18.6235 13.6357 19.6094 14.9154 19.6094H18.1476V21.9242C18.1472 22.0081 18.0625 22.0796 17.9618 22.0796L17.9623 22.0798ZM19.1989 18.4257C19.1989 18.5687 19.0711 18.6896 18.9203 18.6896L14.9159 18.6894C14.1718 18.6894 13.5668 18.1161 13.5668 17.4114V17.308C13.5668 16.6034 14.1722 16.0305 14.9159 16.0305H18.9203C19.0711 16.0305 19.1989 16.1516 19.1989 16.2944V18.4257ZM15.4436 17.3424V17.3772C15.4436 17.6313 15.2263 17.8371 14.958 17.8371C14.6896 17.8371 14.4723 17.6313 14.4723 17.3772V17.3424C14.4723 17.0883 14.6896 16.8825 14.958 16.8825C15.2258 16.8825 15.4436 17.0883 15.4436 17.3424ZM5.84633 5.52143C5.84633 4.5662 6.40028 3.73242 7.21861 3.2885V2.50071C7.21861 2.24662 7.43594 2.04082 7.70427 2.04082C7.9726 2.04082 8.18994 2.24662 8.18994 2.50071V2.97511C8.3125 2.95895 8.43681 2.94775 8.56398 2.94775C8.63467 2.94775 8.70493 2.95169 8.77496 2.95687V2.5005C8.77496 2.24641 8.9923 2.04061 9.26063 2.04061C9.52896 2.04061 9.74629 2.24641 9.74629 2.5005V3.20414C9.97063 3.30694 10.1812 3.43875 10.3707 3.59854C10.5712 3.76745 10.5887 4.05823 10.4104 4.24785C10.232 4.43727 9.92469 4.45427 9.72466 4.28536C9.4049 4.01552 8.99281 3.86692 8.56401 3.86692C7.6012 3.86692 6.81791 4.60886 6.81791 5.52037C6.81791 6.43231 7.60143 7.17382 8.56401 7.17382C8.99277 7.17382 9.40468 7.02522 9.72466 6.75538C9.92514 6.58626 10.2322 6.60326 10.4104 6.79289C10.5887 6.98274 10.571 7.27351 10.3707 7.4422C10.1812 7.60199 9.97087 7.73422 9.74629 7.83701V8.54065C9.74629 8.79474 9.52896 9.00054 9.26063 9.00054C8.9923 9.00054 8.77496 8.79474 8.77496 8.54065V8.08428C8.70493 8.08946 8.63467 8.0934 8.56398 8.0934C8.43682 8.0934 8.31272 8.08221 8.18994 8.06604V8.54044C8.18994 8.79453 7.9726 9.00033 7.70427 9.00033C7.43594 9.00033 7.21861 8.79453 7.21861 8.54044V7.75266C6.4003 7.31038 5.84633 6.4766 5.84633 5.52137V5.52143Z" fill="#D9E5FF"/>
</svg>
